<?xml version="1.0" encoding="UTF-8" standalone="no"?>
<!-- Created with Inkscape (http://www.inkscape.org/) -->

<svg
   xmlns:dc="http://purl.org/dc/elements/1.1/"
   xmlns:cc="http://creativecommons.org/ns#"
   xmlns:rdf="http://www.w3.org/1999/02/22-rdf-syntax-ns#"
   xmlns:svg="http://www.w3.org/2000/svg"
   xmlns="http://www.w3.org/2000/svg"
   xmlns:sodipodi="http://sodipodi.sourceforge.net/DTD/sodipodi-0.dtd"
   xmlns:inkscape="http://www.inkscape.org/namespaces/inkscape"
   width="117mm"
   height="116.8mm"
   viewBox="0 0 414.56669 413.85803"
   id="svg2"
   version="1.1"
   inkscape:version="0.91 r13725"
   inkscape:export-filename="/home/shubham/logo.png"
   inkscape:export-xdpi="90"
   inkscape:export-ydpi="90"
   sodipodi:docname="logo.svg">
  <defs
     id="defs4" />
  <sodipodi:namedview
     id="base"
     pagecolor="#ffffff"
     bordercolor="#666666"
     borderopacity="1.0"
     inkscape:pageopacity="0.0"
     inkscape:pageshadow="2"
     inkscape:zoom="1.979899"
     inkscape:cx="191.23838"
     inkscape:cy="357.93318"
     inkscape:document-units="px"
     inkscape:current-layer="layer1"
     showgrid="false"
     inkscape:window-width="1366"
     inkscape:window-height="674"
     inkscape:window-x="0"
     inkscape:window-y="23"
     inkscape:window-maximized="1" />
  <metadata
     id="metadata7">
    <rdf:RDF>
      <cc:Work
         rdf:about="">
        <dc:format>image/svg+xml</dc:format>
        <dc:type
           rdf:resource="http://purl.org/dc/dcmitype/StillImage" />
        <dc:title></dc:title>
      </cc:Work>
    </rdf:RDF>
  </metadata>
  <g
     inkscape:label="Layer 1"
     inkscape:groupmode="layer"
     id="layer1"
     transform="translate(0,-638.50402)">
    <path
       style="fill:#ffffff;fill-opacity:1;stroke:none;stroke-width:1.37;stroke-miterlimit:4;stroke-dasharray:none;stroke-opacity:1"
       d="M 208.57148,638.30462 A 207.14285,207.14285 0 0 0 1.4288993,845.4472 207.14285,207.14285 0 0 0 185.09687,1050.7405 c 0.43877,-0.3828 1.12712,-0.6504 2.08594,-0.6504 l 0.44922,0 6.58593,0 5.96094,0 c 0.25539,0 0.48658,0.024 0.70508,0.059 0.22262,-0.036 0.46097,-0.059 0.72266,-0.059 l 1.07226,0 c 1.15712,0 1.31805,-0.072 2.3711,0.4649 0.27724,0.065 1.04734,0.2981 1.21875,0.3418 0.0932,0.024 0.27419,-0.039 0.35937,-0.051 0.77064,-0.097 1.54851,-0.046 2.32227,-0.037 0.81064,6e-4 1.62101,0 2.43164,0 0.21424,-0.9959 1.37173,-1.5672 3.03125,-0.586 0.73975,0.4374 1.54635,0.6342 2.36132,0.8086 0.35483,-0.1254 0.76986,-0.21 1.26172,-0.2226 1.36077,-0.035 2.68863,0.113 3.47461,1.0195 A 207.14285,207.14285 0 0 0 415.71406,845.4472 207.14285,207.14285 0 0 0 208.57148,638.30462 Z m 2.78711,412.58628 c -0.73212,0.4643 -0.50561,0.7043 0.0918,0.8692 -0.10058,-0.3029 -0.13333,-0.6005 -0.0918,-0.8692 z"
       id="path4140"
       inkscape:connector-curvature="0" />
    <path
       style="fill:#ffffff;fill-opacity:1;stroke:none;stroke-width:1.05343008;stroke-miterlimit:4;stroke-dasharray:none;stroke-opacity:1"
       d="m 0.41327928,638.31634 0,412.48866 0.30078,0 c 0.19345,0 0.38864002,0.028 0.58008002,0 0.10154,-0.015 0.18441,-0.091 0.28125,-0.125 0.17356,-0.061 0.35313,-0.1055 0.52929,-0.1582 0.82692,-0.32 1.66627,-0.038 2.50782,-0.051 0.72828,-0.034 1.45679,-0.029 2.18554,-0.023 0.71033,0 1.4205402,0 2.1308602,0 0.86288,6e-4 1.7250195,10e-5 2.5878895,0 0.83339,-10e-5 1.66857,0 2.50196,0 l 3.0332,0 c 0.77416,0.075 1.50374,0.4236 2.2832,0.4648 0.36888,0.02 0.80244,-0.071 1.16406,-0.1015 0.92667,-0.062 1.85558,4e-4 2.78321,0 1.09411,-0.011 2.18905,-0.01 3.2832,-0.01 1.08322,7e-4 2.16678,0 3.25,0 0.56298,-0.079 1.17129,0.1 1.73047,0 0.0304,0 -0.0208,-0.078 0.006,-0.094 0.1218,-0.073 0.26256,-0.1085 0.39844,-0.1504 0.19582,-0.06 0.39741,-0.1027 0.5957,-0.1543 1.07381,-0.09 2.1313,0.084 3.20703,0.053 0.89382,-0.032 1.7875,-0.012 2.68164,-0.01 1.15559,-8e-4 2.31122,0 3.4668,0 1.05381,4e-4 2.10831,0 3.16211,0 l 2.82031,0 3.83984,0 5.58008,0 4.4043,0 4.38867,0 5.00391,0 3.88281,0 3.16406,0 3.84571,0 4.47656,0 4.27539,0 3.62305,0 3.32617,0 3.677731,0 4.33984,0 5.94141,0 4.08985,0 5.5371,0 6.85547,0 3.30078,0 c 0.7957,-0.1165 1.49372,0.2722 2.21289,0.5429 0.0139,0 -0.0149,-0.035 -0.004,-0.045 0.0286,-0.027 0.07,-0.035 0.10547,-0.053 1.17699,-0.1419 2.36457,-0.1159 3.54687,-0.088 1.17911,0.011 2.35796,0 3.53711,0 0.90417,0 1.80872,10e-4 2.71289,0 1.04369,-10e-5 2.08717,0 3.13086,0 0.50812,-0.06 1.02704,0.06 1.53516,0 0.11551,-0.014 0.21271,-0.096 0.32422,-0.1289 0.23063,-0.068 0.46281,-0.1292 0.69922,-0.1738 0.88204,-0.1662 0.93726,-0.1287 1.83398,-0.1426 1.23047,0.1042 2.46369,0.1287 3.69727,0.09 -0.0602,-0.017 -0.22962,-0.011 -0.18165,-0.051 0.12786,-0.1065 0.30409,-0.1359 0.4629,-0.1855 1.00036,-0.3127 2.00399,-0.1911 3.02929,-0.1152 0.63029,0.034 1.25953,-0.012 1.89063,-0.012 0.86781,0.01 1.73567,0.01 2.60351,0.01 -0.009,0 -0.0171,-0.01 0,-0.023 0.18319,-0.1431 0.4304,-0.1816 0.65625,-0.2364 1.22155,-0.2965 2.45194,-0.1679 3.68946,-0.096 0.8864,0.1296 1.80566,-0.1024 2.68945,0 0.58952,0.067 1.29664,0.2571 1.88867,0.4043 0.28121,-0.3914 1.21367,-0.5123 1.85742,-0.4961 1.17117,-0.5339 2.50169,-0.2771 3.74805,-0.248 0.77783,8e-4 0.68668,-3e-4 1.16016,-0.01 0.14094,-0.061 0.3417,-0.1159 0.44921,-0.1602 0.27191,-0.1121 0.5622,-0.1708 0.84376,-0.2558 0.26695,-0.014 0.5335,-0.044 0.80078,-0.041 0.35598,0 0.70907,0.076 1.06445,0.098 0.55672,0.033 1.11481,0.013 1.67187,0 2.15537,-0.031 4.31129,-0.014 6.4668,-0.01 1.08229,-9e-4 2.1638,0 3.2461,0 -0.0514,0 -0.10036,-0.01 -0.14258,-0.031 -0.0402,-0.025 0.0703,-0.069 0.11523,-0.084 0.33396,-0.1128 0.66588,-0.2416 1.01367,-0.2989 0.72974,-0.1202 1.5175,-0.01 2.24805,0.064 0.72071,0.036 1.44105,-0.013 2.16211,-0.014 0.77833,0.01 1.55562,0.01 2.33398,0.01 1.21257,-7e-4 2.42611,0 3.63868,0 1.34945,-10e-5 2.69937,0 4.04882,0 0.85345,10e-5 1.7071,0 2.56055,0 l 2.25195,0 2.74414,0 2.42579,0 0.0957,0 0,-410.34407 -217.88867072,0 z"
       id="rect4142"
       inkscape:connector-curvature="0" />
    <path
       style="fill:#afafaf;fill-opacity:1;fill-rule:evenodd;stroke:none;stroke-width:1px;stroke-linecap:butt;stroke-linejoin:miter;stroke-opacity:1"
       d="m 97.036719,722.83181 c -0.57176,0.0679 -1.17368,0.24099 -1.83036,0.36182 -0.11501,0.0214 -0.22366,0.0326 -0.33646,0.0508 l -94.60741972,95.03603 0,233.17234 1.00756002,1.0005 220.3083807,0 92.03606,-77.01044 c -1.20554,-0.93296 -2.27287,-2.12496 -3.74807,-2.57543 -3.44841,-1.05325 -4.92214,-3.18229 -5.00471,-5.22808 L 185.3635,993.41058 129.02895,960.38523 69.675629,900.34062 59.615799,801.26849 78.729839,755.23472 98.01303,723.26391 c -0.344031,-0.15056 -0.692631,-0.3058 -0.976311,-0.43152 z"
       id="path4201"
       inkscape:connector-curvature="0" />
    <path
       inkscape:connector-curvature="0"
       style="fill:#1b1b1b;fill-opacity:1;stroke:#1b1b1f;stroke-width:1.21488166;stroke-miterlimit:4;stroke-dasharray:none;stroke-opacity:0.94117647"
       d="M 200.71372,685.72298 A 167.22041,167.22041 0 0 0 33.493019,852.94368 167.22041,167.22041 0 0 0 200.71372,1020.1648 167.22041,167.22041 0 0 0 367.93442,852.94368 167.22041,167.22041 0 0 0 323.96177,740.18782 l -35.39649,32.94336 a 118.82478,118.82478 0 0 1 0.082,0.0996 l -78.88281,73.41406 33.08984,35.55664 70.73829,-65.83593 a 118.82478,118.82478 0 0 1 5.94531,36.57812 A 118.82478,118.82478 0 0 1 200.71372,971.7679 118.82478,118.82478 0 0 1 81.889499,852.94368 118.82478,118.82478 0 0 1 200.71372,734.11946 118.82478,118.82478 0 0 1 248.3856,744.17415 l 37.50781,-34.9082 a 167.22041,167.22041 0 0 0 -85.17969,-23.54297 z"
       id="path4144" />
  </g>
</svg>
